<svg xmlns="http://www.w3.org/2000/svg" version="1.1"
    xmlns:xlink="http://www.w3.org/1999/xlink" width="512" height="512" x="0" y="0" viewBox="0 0 24 24" style="enable-background:new 0 0 512 512" xml:space="preserve" class="">
    <g>
        <path d="M20.69 14.94c-.58.36-1.13.64-1.62.84-.34.15-.71.22-1.07.22s-.73-.07-1.07-.22c-.87-.36-1.93-.96-2.96-1.78H4.42l1.48-3.4c.16-.36.52-.6.91-.6h3.94c-.28-.62-.5-1.29-.62-2H6.81c-1.19 0-2.27.71-2.75 1.8l-1.98 4.55c-.01.02 0 .04-.01.07C.85 15.04 0 16.29 0 17.75v3.75a2.5 2.5 0 0 0 5 0V21h12v.5a2.5 2.5 0 0 0 5 0v-3.75c0-1.13-.51-2.14-1.31-2.81zM6 19H4c-.55 0-1-.45-1-1s.45-1 1-1h2c.55 0 1 .45 1 1s-.45 1-1 1zm12 0h-2c-.55 0-1-.45-1-1s.45-1 1-1h2c.55 0 1 .45 1 1s-.45 1-1 1z" fill="#095ca0" opacity="1" data-original="#000000"></path>
        <path d="M23.491 1.826 18.241.04a.737.737 0 0 0-.482 0l-5.25 1.786a.749.749 0 0 0-.509.71v4.018c0 4.904 5.474 7.288 5.707 7.387a.754.754 0 0 0 .586 0C18.526 13.842 24 11.458 24 6.554V2.536a.749.749 0 0 0-.509-.71zm-2.205 3.792-2.75 3.5a1 1 0 0 1-1.436.142l-1.75-1.5a1 1 0 1 1 1.301-1.518l.958.821 2.105-2.679a.998.998 0 1 1 1.572 1.234z" fill="#095ca0" opacity="1" data-original="#000000"></path>
    </g>
</svg>