<svg xmlns="http://www.w3.org/2000/svg" version="1.0" width="645.000000pt" height="144.000000pt" viewBox="0 0 645.000000 144.000000" preserveAspectRatio="xMidYMid meet">

	<g transform="translate(0.000000,144.000000) scale(0.100000,-0.100000)" fill="#000000" stroke="none">
		<path d="M721 1163 c-46 -23 -71 -67 -71 -127 0 -43 4 -53 39 -87 35 -35 44 -39 91 -39 145 0 192 174 68 250 -40 24 -82 25 -127 3z m137 -25 c68 -53 63 -154 -10 -198 -107 -65 -230 49 -173 160 32 63 127 82 183 38z"/>
		<path d="M462 984 c-81 -34 -63 -151 26 -169 20 -4 32 -3 32 4 0 6 -11 11 -25 11 -33 0 -75 42 -75 75 0 35 42 75 78 75 38 0 72 -33 72 -71 0 -18 4 -28 10 -24 17 11 11 42 -15 73 -29 35 -62 44 -103 26z"/>
		<path d="M1032 984 c-17 -7 -35 -21 -41 -33 -13 -24 -15 -71 -2 -71 4 0 6 11 4 24 -4 17 3 33 20 50 51 50 127 20 127 -49 0 -45 -29 -75 -72 -75 -23 0 -29 -3 -21 -11 18 -18 81 8 98 41 21 41 19 64 -10 98 -29 35 -62 44 -103 26z"/>
		<path d="M1600 875 l0 -55 60 0 60 0 0 -190 0 -190 55 0 55 0 0 190 0 190 60 0 60 0 0 55 0 55 -175 0 -175 0 0 -55z"/>
		<path d="M2060 685 l0 -245 160 0 160 0 0 55 0 55 -106 0 -105 0 3 38 3 37 73 3 72 3 0 54 0 54 -72 3 -73 3 -3 38 -3 37 105 0 106 0 0 55 0 55 -160 0 -160 0 0 -245z"/>
		<path d="M2480 685 l0 -245 60 0 60 0 0 65 0 65 89 0 c81 0 93 3 118 24 27 23 28 28 31 136 4 128 0 152 -30 180 -20 18 -35 20 -175 20 l-153 0 0 -245z m248 68 l-3 -68 -62 -3 -63 -3 0 71 0 70 65 0 66 0 -3 -67z"/>
		<path d="M2950 685 l0 -245 155 0 155 0 0 55 0 55 -100 0 -100 0 0 40 0 40 70 0 70 0 0 55 0 55 -70 0 -70 0 0 40 0 40 100 0 100 0 0 55 0 55 -155 0 -155 0 0 -245z"/>
		<path d="M3539 904 c-22 -24 -24 -34 -24 -124 0 -130 10 -143 123 -150 l77 -5 3 -37 3 -38 -105 0 -106 0 0 -55 0 -55 135 0 c120 0 137 2 154 19 26 26 34 74 29 162 -3 63 -7 74 -31 95 -24 20 -39 24 -98 24 l-69 0 0 40 0 40 100 0 100 0 0 55 0 55 -133 0 c-131 0 -134 -1 -158 -26z"/>
		<path d="M3940 685 l0 -245 55 0 55 0 0 245 0 245 -55 0 -55 0 0 -245z"/>
		<path d="M4182 907 c-21 -22 -22 -32 -22 -224 l0 -202 26 -20 c24 -19 40 -21 145 -21 64 0 125 3 134 6 33 13 45 59 45 179 l0 115 -90 0 -90 0 0 -55 0 -55 35 0 c34 0 35 -1 35 -40 l0 -40 -65 0 -65 0 0 135 0 135 120 0 120 0 0 55 0 55 -153 0 c-148 0 -154 -1 -175 -23z"/>
		<path d="M4645 905 c-25 -24 -25 -25 -25 -220 0 -195 0 -196 25 -220 23 -24 30 -25 150 -25 120 0 127 1 150 25 25 24 25 25 25 220 0 195 0 196 -25 220 -23 24 -30 25 -150 25 -120 0 -127 -1 -150 -25z m215 -220 l0 -135 -65 0 -65 0 0 135 0 135 65 0 65 0 0 -135z"/>
		<path d="M5080 685 l0 -245 55 0 55 0 0 65 0 65 34 0 c32 0 35 -3 61 -65 l28 -65 59 0 c32 0 58 1 58 3 0 2 -11 31 -25 65 l-25 61 25 25 c24 24 25 30 25 156 0 126 -1 132 -25 155 -23 24 -28 25 -175 25 l-150 0 0 -245z m235 65 l0 -65 -62 -3 -63 -3 0 71 0 71 63 -3 62 -3 0 -65z"/>
		<path d="M5540 875 l0 -55 60 0 60 0 0 -190 0 -190 55 0 55 0 0 190 0 190 60 0 60 0 0 55 0 55 -175 0 -175 0 0 -55z"/>
		<path d="M6010 703 c-35 -126 -65 -236 -68 -245 -4 -16 3 -18 50 -18 54 0 55 1 64 33 10 32 11 32 76 35 l66 3 6 -36 7 -35 58 0 58 0 -59 208 c-32 114 -63 224 -68 245 l-11 37 -58 0 -57 0 -64 -227z m134 -10 c3 -16 8 -38 12 -50 6 -21 3 -23 -26 -23 -29 0 -32 2 -26 23 4 12 9 34 12 50 4 15 10 27 14 27 4 0 10 -12 14 -27z"/>
		<path d="M629 892 c-34 -17 -65 -44 -84 -71 -28 -40 -30 -48 -31 -144 l-2 -102 7 95 c4 60 13 107 24 128 21 38 86 88 128 97 16 4 29 11 29 16 0 15 -14 11 -71 -19z"/>
		<path d="M870 912 c0 -4 19 -15 43 -24 23 -10 54 -29 70 -43 53 -50 61 -78 67 -245 l7 -155 1 148 c2 185 -11 225 -101 289 -29 21 -87 41 -87 30z"/>
		<path d="M740 862 c-46 -38 -16 -112 45 -112 60 0 87 68 43 110 -27 25 -59 26 -88 2z m88 -20 c16 -21 15 -33 -4 -60 -29 -41 -94 -19 -94 33 0 48 66 67 98 27z"/>
		<path d="M373 804 c-54 -32 -83 -91 -83 -168 0 -35 4 -55 10 -51 6 3 10 34 10 67 0 75 24 118 81 146 22 11 36 23 31 25 -4 3 -27 -5 -49 -19z"/>
		<path d="M1136 821 c-3 -4 10 -13 28 -19 18 -7 45 -26 62 -43 29 -30 29 -31 32 -170 4 -160 22 -191 22 -36 0 149 -6 174 -55 222 -40 40 -80 61 -89 46z"/>
		<path d="M673 716 c-35 -32 -37 -37 -39 -102 l-3 -69 8 63 c6 49 14 69 36 92 16 17 35 30 42 30 7 0 13 5 13 10 0 19 -20 10 -57 -24z"/>
		<path d="M845 737 c10 -7 32 -24 47 -39 27 -26 28 -29 28 -137 0 -67 4 -111 10 -111 16 0 12 185 -4 225 -14 32 -67 76 -91 74 -5 0 -1 -6 10 -12z"/>
		<path d="M505 550 c-3 -5 -1 -10 4 -10 6 0 11 5 11 10 0 6 -2 10 -4 10 -3 0 -8 -4 -11 -10z"/>
		<path d="M290 375 l0 -175 74 0 c98 0 106 4 106 51 0 29 5 41 21 50 32 17 74 6 185 -46 115 -54 158 -62 240 -45 76 16 312 105 336 127 13 12 18 27 16 45 -3 15 0 29 6 31 7 3 7 8 2 13 -5 5 -11 4 -13 -3 -3 -7 -14 -13 -26 -13 -40 0 -297 -54 -297 -63 0 -5 8 -6 18 -3 67 19 275 57 287 52 20 -7 19 -29 -3 -49 -10 -9 -79 -40 -153 -69 -127 -50 -139 -52 -229 -53 -93 0 -97 1 -199 49 -88 41 -110 48 -148 43 l-44 -5 3 82 3 81 40 14 c71 25 151 19 225 -19 104 -53 140 -78 140 -100 0 -26 -34 -26 -119 0 -66 20 -97 20 -45 0 72 -28 143 -41 164 -30 48 26 11 66 -121 134 -100 51 -146 57 -232 31 -37 -11 -49 -11 -51 -2 -15 49 -12 47 -101 47 l-85 0 0 -175z m72 123 c1 -41 1 -41 5 -8 5 44 23 65 23 27 0 -15 5 -27 10 -27 6 0 10 11 10 25 0 26 7 29 34 19 14 -5 16 -29 16 -159 l0 -153 -31 -6 c-17 -3 -51 -6 -75 -6 l-44 0 0 165 0 165 25 0 c22 0 25 -4 27 -42z"/>
		<path d="M920 420 c0 -5 5 -10 10 -10 6 0 10 5 10 10 0 6 -4 10 -10 10 -5 0 -10 -4 -10 -10z"/>
		<path d="M656 392 c-3 -5 1 -9 9 -9 8 0 12 4 9 9 -3 4 -7 8 -9 8 -2 0 -6 -4 -9 -8z"/>
	</g>
</svg>